<svg width="1923" height="513" viewBox="0 0 1923 513" fill="none" xmlns="http://www.w3.org/2000/svg">
<g clip-path="url(#clip0_422_667)">
<rect width="1923" height="513" fill="white"/>
<rect width="1923" height="513" fill="#05445E"/>
<rect x="1921.02" y="511.368" width="15.4905" height="15.4905" rx="4" transform="rotate(-49.1623 1921.02 511.368)" fill="#C0F5FF"/>
<rect x="1863.92" y="517.958" width="15.4905" height="15.4905" rx="4" transform="rotate(-37.1823 1863.92 517.958)" fill="#C8E1F5"/>
<rect x="1877.33" y="507.203" width="15.4905" height="15.4905" rx="4" transform="rotate(-40.1223 1877.33 507.203)" fill="#C0F5FF"/>
<rect x="1900.85" y="482.211" width="15.4905" height="15.4905" rx="4" transform="rotate(-55.6779 1900.85 482.211)" fill="#C0F5FF"/>
<rect x="1890.38" y="495.446" width="15.4905" height="15.4905" rx="4" transform="rotate(-49.5085 1890.38 495.446)" fill="#C8E1F5"/>
<rect x="1906.94" y="502.94" width="15.4905" height="15.4905" rx="4" transform="rotate(-52.6639 1906.94 502.94)" fill="#C8E1F5"/>
<rect x="1895.13" y="514.798" width="15.4905" height="15.4905" rx="4" transform="rotate(-45.6079 1895.13 514.798)" fill="#B1E1F8"/>
<rect x="1917.41" y="489.685" width="15.4905" height="15.4905" rx="4" transform="rotate(-59.4204 1917.41 489.685)" fill="#B1E1F8"/>
<rect x="1913.87" y="467.462" width="15.4905" height="15.4905" rx="4" transform="rotate(-56.0353 1913.87 467.462)" fill="#C8E1F5"/>
<rect x="-25.4718" y="21.8223" width="21.6703" height="21.6703" rx="6" transform="rotate(-52.2511 -25.4718 21.8223)" fill="#C0F5FF"/>
<rect x="-11.5691" y="3.29492" width="21.6703" height="21.6703" rx="6" transform="rotate(-56.691 -11.5691 3.29492)" fill="#C8E1F5"/>
<rect x="-29.4261" y="63.2578" width="21.6703" height="21.6703" rx="6" transform="rotate(-48.5956 -29.4261 63.2578)" fill="#B1E1F8"/>
<rect x="1.47949" y="25.3145" width="21.6703" height="21.6703" rx="6" transform="rotate(-55.4201 1.47949 25.3145)" fill="#B1E1F8"/>
<rect x="15.3754" y="4.45264" width="21.6703" height="21.6703" rx="6" transform="rotate(-58.3601 15.3754 4.45264)" fill="#C8E1F5"/>
<rect x="-13.4424" y="44.1479" width="21.6703" height="21.6703" rx="6" transform="rotate(-50.9802 -13.4424 44.1479)" fill="#BAD8FE"/>
<rect x="-25.3003" y="97.7017" width="21.6703" height="21.6703" rx="6" transform="rotate(-43.2338 -25.3003 97.7017)" fill="#C8E1F5"/>
<rect x="-13.0709" y="121.904" width="21.6703" height="21.6703" rx="6" transform="rotate(-47.5009 -13.0709 121.904)" fill="#B1E1F8"/>
<rect x="6.37085" y="61.9785" width="21.6703" height="21.6703" rx="6" transform="rotate(-53.1264 6.37085 61.9785)" fill="#C0F5FF"/>
<rect x="-7.99634" y="80.8491" width="21.6703" height="21.6703" rx="6" transform="rotate(-49.4709 -7.99634 80.8491)" fill="#C8E1F5"/>
<rect x="19.9889" y="43.2407" width="21.6703" height="21.6703" rx="6" transform="rotate(-57.5663 19.9889 43.2407)" fill="#C8E1F5"/>
<rect x="32.34" y="22.6001" width="21.6703" height="21.6703" rx="6" transform="rotate(-60.5063 32.34 22.6001)" fill="#C0F5FF"/>
<rect x="43.7202" y="0.82666" width="21.6703" height="21.6703" rx="6" transform="rotate(-69.8926 43.7202 0.82666)" fill="#C8E1F5"/>
<rect x="3.0498" y="103.47" width="21.6703" height="21.6703" rx="6" transform="rotate(-49.4709 3.0498 103.47)" fill="#B1E1F8"/>
<rect x="33.3723" y="65.0586" width="21.6703" height="21.6703" rx="6" transform="rotate(-56.2954 33.3723 65.0586)" fill="#B1E1F8"/>
<rect x="46.9479" y="43.9868" width="21.6703" height="21.6703" rx="6" transform="rotate(-59.2354 46.9479 43.9868)" fill="#C8E1F5"/>
<rect x="69.0887" y="2.58447" width="21.6703" height="21.6703" rx="6" transform="rotate(-73.0479 69.0887 2.58447)" fill="#C8E1F5"/>
<rect x="59.3804" y="23.8877" width="21.6703" height="21.6703" rx="6" transform="rotate(-65.9919 59.3804 23.8877)" fill="#B1E1F8"/>
<rect x="18.7399" y="84.1177" width="21.6703" height="21.6703" rx="6" transform="rotate(-51.8555 18.7399 84.1177)" fill="#BAD8FE"/>
<rect x="-11.3033" y="261.891" width="21.6703" height="21.6703" rx="6" transform="rotate(-22.8498 -11.3033 261.891)" fill="#C8E1F5"/>
<rect x="-8.26965" y="288.836" width="21.6703" height="21.6703" rx="6" transform="rotate(-27.1169 -8.26965 288.836)" fill="#B1E1F8"/>
<rect x="30.8274" y="239.435" width="21.6703" height="21.6703" rx="6" transform="rotate(-32.7424 30.8274 239.435)" fill="#C0F5FF"/>
<rect x="10.787" y="252.12" width="21.6703" height="21.6703" rx="6" transform="rotate(-29.0868 10.787 252.12)" fill="#C8E1F5"/>
<rect x="50.1191" y="226.614" width="21.6703" height="21.6703" rx="6" transform="rotate(-37.1823 50.1191 226.614)" fill="#C8E1F5"/>
<rect x="68.8861" y="211.568" width="21.6703" height="21.6703" rx="6" transform="rotate(-40.1223 68.8861 211.568)" fill="#C0F5FF"/>
<rect x="104" y="173.395" width="21.6703" height="21.6703" rx="6" transform="rotate(-49.1623 104 173.395)" fill="#C0F5FF"/>
<rect x="87.1377" y="195.122" width="21.6703" height="21.6703" rx="6" transform="rotate(-49.5085 87.1377 195.122)" fill="#C8E1F5"/>
<rect x="13.2626" y="277.171" width="21.6703" height="21.6703" rx="6" transform="rotate(-29.0868 13.2626 277.171)" fill="#B1E1F8"/>
<rect x="55.0651" y="251.728" width="21.6703" height="21.6703" rx="6" transform="rotate(-35.9114 55.0651 251.728)" fill="#B1E1F8"/>
<rect x="75.13" y="236.704" width="21.6703" height="21.6703" rx="6" transform="rotate(-38.8514 75.13 236.704)" fill="#C8E1F5"/>
<rect x="110.305" y="205.606" width="21.6703" height="21.6703" rx="6" transform="rotate(-52.6639 110.305 205.606)" fill="#C8E1F5"/>
<rect x="93.7847" y="222.193" width="21.6703" height="21.6703" rx="6" transform="rotate(-45.6079 93.7847 222.193)" fill="#B1E1F8"/>
<rect x="125.836" y="186.412" width="21.6703" height="21.6703" rx="6" transform="rotate(-52.9049 125.836 186.412)" fill="#B1E1F8"/>
<rect x="34.7104" y="264.496" width="21.6703" height="21.6703" rx="6" transform="rotate(-31.4715 34.7104 264.496)" fill="#BAD8FE"/>
<rect x="4.82739" y="195.435" width="21.6703" height="21.6703" rx="6" transform="rotate(-32.7424 4.82739 195.435)" fill="#C0F5FF"/>
<rect x="-15.213" y="208.12" width="21.6703" height="21.6703" rx="6" transform="rotate(-29.0868 -15.213 208.12)" fill="#C8E1F5"/>
<rect x="24.1191" y="182.614" width="21.6703" height="21.6703" rx="6" transform="rotate(-37.1823 24.1191 182.614)" fill="#C8E1F5"/>
<rect x="42.8861" y="167.568" width="21.6703" height="21.6703" rx="6" transform="rotate(-40.1223 42.8861 167.568)" fill="#C0F5FF"/>
<rect x="75.7842" y="132.606" width="21.6703" height="21.6703" rx="6" transform="rotate(-55.6779 75.7842 132.606)" fill="#C0F5FF"/>
<rect x="61.1377" y="151.122" width="21.6703" height="21.6703" rx="6" transform="rotate(-49.5085 61.1377 151.122)" fill="#C8E1F5"/>
<rect x="-12.7375" y="233.171" width="21.6703" height="21.6703" rx="6" transform="rotate(-29.0868 -12.7375 233.171)" fill="#B1E1F8"/>
<rect x="29.0651" y="207.728" width="21.6703" height="21.6703" rx="6" transform="rotate(-35.9114 29.0651 207.728)" fill="#B1E1F8"/>
<rect x="49.13" y="192.704" width="21.6703" height="21.6703" rx="6" transform="rotate(-38.8514 49.13 192.704)" fill="#C8E1F5"/>
<rect x="84.3053" y="161.606" width="21.6703" height="21.6703" rx="6" transform="rotate(-52.6639 84.3053 161.606)" fill="#C8E1F5"/>
<rect x="67.7847" y="178.194" width="21.6703" height="21.6703" rx="6" transform="rotate(-45.6079 67.7847 178.194)" fill="#B1E1F8"/>
<rect x="98.9561" y="143.062" width="21.6703" height="21.6703" rx="6" transform="rotate(-59.4204 98.9561 143.062)" fill="#B1E1F8"/>
<rect x="8.71045" y="220.497" width="21.6703" height="21.6703" rx="6" transform="rotate(-31.4715 8.71045 220.497)" fill="#BAD8FE"/>
<rect x="136.843" y="133.311" width="21.6703" height="21.6703" rx="6" transform="rotate(-51.6522 136.843 133.311)" fill="#C0F5FF"/>
<rect x="119.531" y="151.912" width="21.6703" height="21.6703" rx="6" transform="rotate(-49.2676 119.531 151.912)" fill="#C8E1F5"/>
<rect x="151.148" y="113.206" width="21.6703" height="21.6703" rx="6" transform="rotate(-56.0921 151.148 113.206)" fill="#C8E1F5"/>
<rect x="164.027" y="92.8906" width="21.6703" height="21.6703" rx="6" transform="rotate(-59.0321 164.027 92.8906)" fill="#C0F5FF"/>
<rect x="185.665" y="50.9854" width="21.6703" height="21.6703" rx="6" transform="rotate(-70.6427 185.665 50.9854)" fill="#C0F5FF"/>
<rect x="175.612" y="72.3911" width="21.6703" height="21.6703" rx="6" transform="rotate(-64.4734 175.612 72.3911)" fill="#C8E1F5"/>
<rect x="190.325" y="28.6182" width="21.6703" height="21.6703" rx="6" transform="rotate(-75.334 190.325 28.6182)" fill="#C8E1F5"/>
<rect x="140.184" y="166.393" width="21.6703" height="21.6703" rx="6" transform="rotate(-52.8992 140.184 166.393)" fill="#B1E1F8"/>
<rect x="170.255" y="127.428" width="21.6703" height="21.6703" rx="6" transform="rotate(-56.0921 170.255 127.428)" fill="#B1E1F8"/>
<rect x="183.905" y="106.404" width="21.6703" height="21.6703" rx="6" transform="rotate(-59.0321 183.905 106.404)" fill="#C8E1F5"/>
<rect x="206.192" y="65.0815" width="21.6703" height="21.6703" rx="6" transform="rotate(-72.8446 206.192 65.0815)" fill="#C8E1F5"/>
<rect x="196.408" y="86.3501" width="21.6703" height="21.6703" rx="6" transform="rotate(-65.7886 196.408 86.3501)" fill="#B1E1F8"/>
<rect x="213.546" y="42.6216" width="21.6703" height="21.6703" rx="6" transform="rotate(-79.6011 213.546 42.6216)" fill="#B1E1F8"/>
<rect x="155.555" y="146.435" width="21.6703" height="21.6703" rx="6" transform="rotate(-51.6522 155.555 146.435)" fill="#BAD8FE"/>
<rect x="196.028" y="5.146" width="21.6703" height="21.6703" rx="6" transform="rotate(-81.5711 196.028 5.146)" fill="#C8E1F5"/>
<rect x="217.406" y="18.4385" width="21.6703" height="21.6703" rx="6" transform="rotate(-81.5711 217.406 18.4385)" fill="#B1E1F8"/>
<rect x="109" y="91.4609" width="21.6703" height="21.6703" rx="6" transform="rotate(-58.4199 109 91.4609)" fill="#C0F5FF"/>
<rect x="94.0004" y="111.973" width="21.6703" height="21.6703" rx="6" transform="rotate(-56.0353 94.0004 111.973)" fill="#C8E1F5"/>
<rect x="120.837" y="69.811" width="21.6703" height="21.6703" rx="6" transform="rotate(-62.8598 120.837 69.811)" fill="#C8E1F5"/>
<rect x="131.231" y="48.1196" width="21.6703" height="21.6703" rx="6" transform="rotate(-65.7998 131.231 48.1196)" fill="#C0F5FF"/>
<rect x="147.781" y="3.95654" width="21.6703" height="21.6703" rx="6" transform="rotate(-77.4104 147.781 3.95654)" fill="#C0F5FF"/>
<rect x="140.32" y="26.3979" width="21.6703" height="21.6703" rx="6" transform="rotate(-71.2411 140.32 26.3979)" fill="#C8E1F5"/>
<rect x="116.216" y="123.919" width="21.6703" height="21.6703" rx="6" transform="rotate(-59.6669 116.216 123.919)" fill="#B1E1F8"/>
<rect x="141.486" y="81.6826" width="21.6703" height="21.6703" rx="6" transform="rotate(-62.8598 141.486 81.6826)" fill="#B1E1F8"/>
<rect x="152.563" y="59.1968" width="21.6703" height="21.6703" rx="6" transform="rotate(-65.7998 152.563 59.1968)" fill="#C8E1F5"/>
<rect x="169.826" y="15.5352" width="21.6703" height="21.6703" rx="6" transform="rotate(-79.6123 169.826 15.5352)" fill="#C8E1F5"/>
<rect x="162.616" y="37.8086" width="21.6703" height="21.6703" rx="6" transform="rotate(-72.5563 162.616 37.8086)" fill="#B1E1F8"/>
<rect x="129.128" y="102.289" width="21.6703" height="21.6703" rx="6" transform="rotate(-58.4199 129.128 102.289)" fill="#BAD8FE"/>
<rect width="1923" height="513" fill="#05445E" fill-opacity="0.69"/>
<rect x="-0.768311" y="141.286" width="21.6703" height="21.6703" rx="6" transform="rotate(-37.6673 -0.768311 141.286)" fill="#C0F5FF"/>
<rect x="-20.8533" y="153.771" width="21.6703" height="21.6703" rx="6" transform="rotate(-31.4979 -20.8533 153.771)" fill="#C8E1F5"/>
<rect x="15.3151" y="125.058" width="21.6703" height="21.6703" rx="6" transform="rotate(-42.3585 15.3151 125.058)" fill="#C8E1F5"/>
<rect x="8.77954" y="164.283" width="21.6703" height="21.6703" rx="6" transform="rotate(-39.8691 8.77954 164.283)" fill="#C8E1F5"/>
<rect x="-11.0042" y="176.8" width="21.6703" height="21.6703" rx="6" transform="rotate(-32.8131 -11.0042 176.8)" fill="#B1E1F8"/>
<rect x="27.1733" y="149.444" width="21.6703" height="21.6703" rx="6" transform="rotate(-46.6256 27.1733 149.444)" fill="#B1E1F8"/>
<rect x="47.5282" y="89.8223" width="21.6703" height="21.6703" rx="6" transform="rotate(-52.2511 47.5282 89.8223)" fill="#C0F5FF"/>
<rect x="32.8744" y="108.471" width="21.6703" height="21.6703" rx="6" transform="rotate(-48.5956 32.8744 108.471)" fill="#C8E1F5"/>
<rect x="61.4309" y="71.2949" width="21.6703" height="21.6703" rx="6" transform="rotate(-56.691 61.4309 71.2949)" fill="#C8E1F5"/>
<rect x="74.0958" y="50.8457" width="21.6703" height="21.6703" rx="6" transform="rotate(-59.631 74.0958 50.8457)" fill="#C0F5FF"/>
<rect x="93.4297" y="6.9043" width="21.6703" height="21.6703" rx="6" transform="rotate(-75.1866 93.4297 6.9043)" fill="#C0F5FF"/>
<rect x="85.8074" y="29.2485" width="21.6703" height="21.6703" rx="6" transform="rotate(-69.0173 85.8074 29.2485)" fill="#C8E1F5"/>
<rect x="43.5739" y="131.258" width="21.6703" height="21.6703" rx="6" transform="rotate(-48.5956 43.5739 131.258)" fill="#B1E1F8"/>
<rect x="74.4795" y="93.3145" width="21.6703" height="21.6703" rx="6" transform="rotate(-55.4201 74.4795 93.3145)" fill="#B1E1F8"/>
<rect x="88.3754" y="72.4526" width="21.6703" height="21.6703" rx="6" transform="rotate(-58.3601 88.3754 72.4526)" fill="#C8E1F5"/>
<rect x="111.146" y="31.3936" width="21.6703" height="21.6703" rx="6" transform="rotate(-72.1726 111.146 31.3936)" fill="#C8E1F5"/>
<rect x="101.113" y="52.5459" width="21.6703" height="21.6703" rx="6" transform="rotate(-65.1166 101.113 52.5459)" fill="#B1E1F8"/>
<rect x="118.763" y="9.02148" width="21.6703" height="21.6703" rx="6" transform="rotate(-78.9291 118.763 9.02148)" fill="#B1E1F8"/>
<rect x="59.5576" y="112.148" width="21.6703" height="21.6703" rx="6" transform="rotate(-50.9802 59.5576 112.148)" fill="#BAD8FE"/>
<rect x="1785.62" y="517.836" width="15.4905" height="15.4905" rx="4" transform="rotate(-18.6767 1785.62 517.836)" fill="#C0F5FF"/>
<rect x="1801.22" y="512.297" width="15.4905" height="15.4905" rx="4" transform="rotate(-23.1166 1801.22 512.297)" fill="#C8E1F5"/>
<rect x="1816.85" y="505.125" width="15.4905" height="15.4905" rx="4" transform="rotate(-26.0566 1816.85 505.125)" fill="#C0F5FF"/>
<rect x="1846.13" y="488.415" width="15.4905" height="15.4905" rx="4" transform="rotate(-37.6673 1846.13 488.415)" fill="#C0F5FF"/>
<rect x="1831.77" y="497.34" width="15.4905" height="15.4905" rx="4" transform="rotate(-31.4979 1831.77 497.34)" fill="#C8E1F5"/>
<rect x="1857.62" y="476.815" width="15.4905" height="15.4905" rx="4" transform="rotate(-42.3585 1857.62 476.815)" fill="#C8E1F5"/>
<rect x="1852.95" y="504.854" width="15.4905" height="15.4905" rx="4" transform="rotate(-39.8691 1852.95 504.854)" fill="#C8E1F5"/>
<rect x="1838.81" y="513.802" width="15.4905" height="15.4905" rx="4" transform="rotate(-32.8131 1838.81 513.802)" fill="#B1E1F8"/>
<rect x="1866.1" y="494.247" width="15.4905" height="15.4905" rx="4" transform="rotate(-46.6256 1866.1 494.247)" fill="#B1E1F8"/>
<rect x="1880.65" y="451.628" width="15.4905" height="15.4905" rx="4" transform="rotate(-52.2511 1880.65 451.628)" fill="#C0F5FF"/>
<rect x="1870.18" y="464.958" width="15.4905" height="15.4905" rx="4" transform="rotate(-48.5956 1870.18 464.958)" fill="#C8E1F5"/>
<rect x="1890.59" y="438.384" width="15.4905" height="15.4905" rx="4" transform="rotate(-56.691 1890.59 438.384)" fill="#C8E1F5"/>
<rect x="1899.64" y="423.767" width="15.4905" height="15.4905" rx="4" transform="rotate(-59.631 1899.64 423.767)" fill="#C0F5FF"/>
<rect x="1913.46" y="392.356" width="15.4905" height="15.4905" rx="4" transform="rotate(-75.1866 1913.46 392.356)" fill="#C0F5FF"/>
<rect x="1908.01" y="408.328" width="15.4905" height="15.4905" rx="4" transform="rotate(-69.0173 1908.01 408.328)" fill="#C8E1F5"/>
<rect x="1877.82" y="481.247" width="15.4905" height="15.4905" rx="4" transform="rotate(-48.5956 1877.82 481.247)" fill="#B1E1F8"/>
<rect x="1899.92" y="454.125" width="15.4905" height="15.4905" rx="4" transform="rotate(-55.4201 1899.92 454.125)" fill="#B1E1F8"/>
<rect x="1909.85" y="439.212" width="15.4905" height="15.4905" rx="4" transform="rotate(-58.3601 1909.85 439.212)" fill="#C8E1F5"/>
<rect x="1918.95" y="424.982" width="15.4905" height="15.4905" rx="4" transform="rotate(-65.1166 1918.95 424.982)" fill="#B1E1F8"/>
<rect x="1889.25" y="467.587" width="15.4905" height="15.4905" rx="4" transform="rotate(-50.9802 1889.25 467.587)" fill="#BAD8FE"/>
</g>
<defs>
<clipPath id="clip0_422_667">
<rect width="1923" height="513" fill="white"/>
</clipPath>
</defs>
</svg>
