<svg width="430" height="1053" viewBox="0 0 430 1053" fill="none" xmlns="http://www.w3.org/2000/svg">
<g clip-path="url(#clip0_420_220)">
<rect width="430" height="1053" fill="white"/>
<rect width="430" height="1212" fill="#05445E"/>
<rect x="-18.7684" y="9.28564" width="21.6703" height="21.6703" rx="6" transform="rotate(-37.6673 -18.7684 9.28564)" fill="#C0F5FF"/>
<rect x="-2.6849" y="-6.94189" width="21.6703" height="21.6703" rx="6" transform="rotate(-42.3585 -2.6849 -6.94189)" fill="#C8E1F5"/>
<rect x="-9.2204" y="32.2827" width="21.6703" height="21.6703" rx="6" transform="rotate(-39.8691 -9.2204 32.2827)" fill="#C8E1F5"/>
<rect x="-29.0042" y="44.8003" width="21.6703" height="21.6703" rx="6" transform="rotate(-32.8131 -29.0042 44.8003)" fill="#B1E1F8"/>
<rect x="9.17331" y="17.4438" width="21.6703" height="21.6703" rx="6" transform="rotate(-46.6256 9.17331 17.4438)" fill="#B1E1F8"/>
<rect x="25.5738" y="-0.742188" width="21.6703" height="21.6703" rx="6" transform="rotate(-48.5956 25.5738 -0.742188)" fill="#B1E1F8"/>
<rect x="-26.733" y="74.1733" width="21.6703" height="21.6703" rx="6" transform="rotate(-26.9319 -26.733 74.1733)" fill="#C0F5FF"/>
<rect x="13.866" y="50.1733" width="21.6703" height="21.6703" rx="6" transform="rotate(-38.5425 13.866 50.1733)" fill="#C0F5FF"/>
<rect x="-6.02582" y="62.9639" width="21.6703" height="21.6703" rx="6" transform="rotate(-32.3732 -6.02582 62.9639)" fill="#C8E1F5"/>
<rect x="29.6997" y="33.7017" width="21.6703" height="21.6703" rx="6" transform="rotate(-43.2338 29.6997 33.7017)" fill="#C8E1F5"/>
<rect x="-17.0752" y="96.1841" width="21.6703" height="21.6703" rx="6" transform="rotate(-26.9319 -17.0752 96.1841)" fill="#C8E1F5"/>
<rect x="23.7642" y="73.022" width="21.6703" height="21.6703" rx="6" transform="rotate(-40.7444 23.7642 73.022)" fill="#C8E1F5"/>
<rect x="4.17392" y="85.8398" width="21.6703" height="21.6703" rx="6" transform="rotate(-33.6884 4.17392 85.8398)" fill="#B1E1F8"/>
<rect x="41.929" y="57.9038" width="21.6703" height="21.6703" rx="6" transform="rotate(-47.5009 41.929 57.9038)" fill="#B1E1F8"/>
<rect x="61.3708" y="-2.02148" width="21.6703" height="21.6703" rx="6" transform="rotate(-53.1264 61.3708 -2.02148)" fill="#C0F5FF"/>
<rect x="47.0036" y="16.8491" width="21.6703" height="21.6703" rx="6" transform="rotate(-49.4709 47.0036 16.8491)" fill="#C8E1F5"/>
<rect x="58.0498" y="39.4697" width="21.6703" height="21.6703" rx="6" transform="rotate(-49.4709 58.0498 39.4697)" fill="#B1E1F8"/>
<rect x="88.3723" y="1.05859" width="21.6703" height="21.6703" rx="6" transform="rotate(-56.2954 88.3723 1.05859)" fill="#B1E1F8"/>
<rect x="73.7398" y="20.1177" width="21.6703" height="21.6703" rx="6" transform="rotate(-51.8555 73.7398 20.1177)" fill="#BAD8FE"/>
<rect x="-23.2989" y="216.171" width="21.6703" height="21.6703" rx="6" transform="rotate(-6.54785 -23.2989 216.171)" fill="#C0F5FF"/>
<rect x="23.1173" y="207.815" width="21.6703" height="21.6703" rx="6" transform="rotate(-18.1585 23.1173 207.815)" fill="#C0F5FF"/>
<rect x="0.0159187" y="212.876" width="21.6703" height="21.6703" rx="6" transform="rotate(-11.9892 0.0159187 212.876)" fill="#C8E1F5"/>
<rect x="43.6966" y="197.891" width="21.6703" height="21.6703" rx="6" transform="rotate(-22.8498 43.6966 197.891)" fill="#C8E1F5"/>
<rect x="-21.9125" y="240.168" width="21.6703" height="21.6703" rx="6" transform="rotate(-6.54785 -21.9125 240.168)" fill="#C8E1F5"/>
<rect x="24.4371" y="232.681" width="21.6703" height="21.6703" rx="6" transform="rotate(-20.3603 24.4371 232.681)" fill="#C8E1F5"/>
<rect x="1.60893" y="237.873" width="21.6703" height="21.6703" rx="6" transform="rotate(-13.3044 1.60893 237.873)" fill="#B1E1F8"/>
<rect x="46.7303" y="224.836" width="21.6703" height="21.6703" rx="6" transform="rotate(-27.1169 46.7303 224.836)" fill="#B1E1F8"/>
<rect x="85.8274" y="175.435" width="21.6703" height="21.6703" rx="6" transform="rotate(-32.7424 85.8274 175.435)" fill="#C0F5FF"/>
<rect x="65.787" y="188.12" width="21.6703" height="21.6703" rx="6" transform="rotate(-29.0868 65.787 188.12)" fill="#C8E1F5"/>
<rect x="105.119" y="162.614" width="21.6703" height="21.6703" rx="6" transform="rotate(-37.1823 105.119 162.614)" fill="#C8E1F5"/>
<rect x="123.886" y="147.568" width="21.6703" height="21.6703" rx="6" transform="rotate(-40.1223 123.886 147.568)" fill="#C0F5FF"/>
<rect x="159" y="109.395" width="21.6703" height="21.6703" rx="6" transform="rotate(-49.1623 159 109.395)" fill="#C0F5FF"/>
<rect x="142.138" y="131.122" width="21.6703" height="21.6703" rx="6" transform="rotate(-49.5085 142.138 131.122)" fill="#C8E1F5"/>
<rect x="68.2625" y="213.171" width="21.6703" height="21.6703" rx="6" transform="rotate(-29.0868 68.2625 213.171)" fill="#B1E1F8"/>
<rect x="110.065" y="187.728" width="21.6703" height="21.6703" rx="6" transform="rotate(-35.9114 110.065 187.728)" fill="#B1E1F8"/>
<rect x="130.13" y="172.704" width="21.6703" height="21.6703" rx="6" transform="rotate(-38.8514 130.13 172.704)" fill="#C8E1F5"/>
<rect x="165.305" y="141.606" width="21.6703" height="21.6703" rx="6" transform="rotate(-52.6639 165.305 141.606)" fill="#C8E1F5"/>
<rect x="148.785" y="158.193" width="21.6703" height="21.6703" rx="6" transform="rotate(-45.6079 148.785 158.193)" fill="#B1E1F8"/>
<rect x="180.836" y="122.412" width="21.6703" height="21.6703" rx="6" transform="rotate(-52.9049 180.836 122.412)" fill="#B1E1F8"/>
<rect x="89.7105" y="200.496" width="21.6703" height="21.6703" rx="6" transform="rotate(-31.4715 89.7105 200.496)" fill="#BAD8FE"/>
<rect x="-2.88267" y="163.815" width="21.6703" height="21.6703" rx="6" transform="rotate(-18.1585 -2.88267 163.815)" fill="#C0F5FF"/>
<rect x="17.6967" y="153.891" width="21.6703" height="21.6703" rx="6" transform="rotate(-22.8498 17.6967 153.891)" fill="#C8E1F5"/>
<rect x="-1.56284" y="188.681" width="21.6703" height="21.6703" rx="6" transform="rotate(-20.3603 -1.56284 188.681)" fill="#C8E1F5"/>
<rect x="-24.391" y="193.873" width="21.6703" height="21.6703" rx="6" transform="rotate(-13.3044 -24.391 193.873)" fill="#B1E1F8"/>
<rect x="20.7304" y="180.836" width="21.6703" height="21.6703" rx="6" transform="rotate(-27.1169 20.7304 180.836)" fill="#B1E1F8"/>
<rect x="59.8274" y="131.435" width="21.6703" height="21.6703" rx="6" transform="rotate(-32.7424 59.8274 131.435)" fill="#C0F5FF"/>
<rect x="39.7871" y="144.12" width="21.6703" height="21.6703" rx="6" transform="rotate(-29.0868 39.7871 144.12)" fill="#C8E1F5"/>
<rect x="79.1192" y="118.614" width="21.6703" height="21.6703" rx="6" transform="rotate(-37.1823 79.1192 118.614)" fill="#C8E1F5"/>
<rect x="97.8862" y="103.568" width="21.6703" height="21.6703" rx="6" transform="rotate(-40.1223 97.8862 103.568)" fill="#C0F5FF"/>
<rect x="130.784" y="68.6064" width="21.6703" height="21.6703" rx="6" transform="rotate(-55.6779 130.784 68.6064)" fill="#C0F5FF"/>
<rect x="116.138" y="87.1221" width="21.6703" height="21.6703" rx="6" transform="rotate(-49.5085 116.138 87.1221)" fill="#C8E1F5"/>
<rect x="42.2626" y="169.171" width="21.6703" height="21.6703" rx="6" transform="rotate(-29.0868 42.2626 169.171)" fill="#B1E1F8"/>
<rect x="84.0652" y="143.728" width="21.6703" height="21.6703" rx="6" transform="rotate(-35.9114 84.0652 143.728)" fill="#B1E1F8"/>
<rect x="104.13" y="128.704" width="21.6703" height="21.6703" rx="6" transform="rotate(-38.8514 104.13 128.704)" fill="#C8E1F5"/>
<rect x="139.305" y="97.606" width="21.6703" height="21.6703" rx="6" transform="rotate(-52.6639 139.305 97.606)" fill="#C8E1F5"/>
<rect x="122.785" y="114.194" width="21.6703" height="21.6703" rx="6" transform="rotate(-45.6079 122.785 114.194)" fill="#B1E1F8"/>
<rect x="153.956" y="79.062" width="21.6703" height="21.6703" rx="6" transform="rotate(-59.4204 153.956 79.062)" fill="#B1E1F8"/>
<rect x="63.7105" y="156.497" width="21.6703" height="21.6703" rx="6" transform="rotate(-31.4715 63.7105 156.497)" fill="#BAD8FE"/>
<rect x="191.843" y="69.3105" width="21.6703" height="21.6703" rx="6" transform="rotate(-51.6522 191.843 69.3105)" fill="#C0F5FF"/>
<rect x="174.531" y="87.9116" width="21.6703" height="21.6703" rx="6" transform="rotate(-49.2676 174.531 87.9116)" fill="#C8E1F5"/>
<rect x="206.148" y="49.2061" width="21.6703" height="21.6703" rx="6" transform="rotate(-56.0921 206.148 49.2061)" fill="#C8E1F5"/>
<rect x="219.027" y="28.8906" width="21.6703" height="21.6703" rx="6" transform="rotate(-59.0321 219.027 28.8906)" fill="#C0F5FF"/>
<rect x="230.612" y="8.39111" width="21.6703" height="21.6703" rx="6" transform="rotate(-64.4734 230.612 8.39111)" fill="#C8E1F5"/>
<rect x="195.184" y="102.393" width="21.6703" height="21.6703" rx="6" transform="rotate(-52.8992 195.184 102.393)" fill="#B1E1F8"/>
<rect x="225.255" y="63.4282" width="21.6703" height="21.6703" rx="6" transform="rotate(-56.0921 225.255 63.4282)" fill="#B1E1F8"/>
<rect x="238.905" y="42.4043" width="21.6703" height="21.6703" rx="6" transform="rotate(-59.0321 238.905 42.4043)" fill="#C8E1F5"/>
<rect x="261.192" y="1.08154" width="21.6703" height="21.6703" rx="6" transform="rotate(-72.8446 261.192 1.08154)" fill="#C8E1F5"/>
<rect x="251.408" y="22.3501" width="21.6703" height="21.6703" rx="6" transform="rotate(-65.7886 251.408 22.3501)" fill="#B1E1F8"/>
<rect x="210.555" y="82.4346" width="21.6703" height="21.6703" rx="6" transform="rotate(-51.6522 210.555 82.4346)" fill="#BAD8FE"/>
<rect x="164" y="27.4609" width="21.6703" height="21.6703" rx="6" transform="rotate(-58.4199 164 27.4609)" fill="#C0F5FF"/>
<rect x="149" y="47.9727" width="21.6703" height="21.6703" rx="6" transform="rotate(-56.0353 149 47.9727)" fill="#C8E1F5"/>
<rect x="175.837" y="5.81104" width="21.6703" height="21.6703" rx="6" transform="rotate(-62.8598 175.837 5.81104)" fill="#C8E1F5"/>
<rect x="171.216" y="59.9194" width="21.6703" height="21.6703" rx="6" transform="rotate(-59.6669 171.216 59.9194)" fill="#B1E1F8"/>
<rect x="196.486" y="17.6826" width="21.6703" height="21.6703" rx="6" transform="rotate(-62.8598 196.486 17.6826)" fill="#B1E1F8"/>
<rect x="207.563" y="-4.80322" width="21.6703" height="21.6703" rx="6" transform="rotate(-65.7998 207.563 -4.80322)" fill="#C8E1F5"/>
<rect x="184.128" y="38.2886" width="21.6703" height="21.6703" rx="6" transform="rotate(-58.4199 184.128 38.2886)" fill="#BAD8FE"/>
<rect width="430" height="1212" fill="#05445E" fill-opacity="0.69"/>
<rect x="-8.59022" y="110.696" width="21.6703" height="21.6703" rx="6" transform="rotate(-23.1166 -8.59022 110.696)" fill="#C8E1F5"/>
<rect x="13.2707" y="100.663" width="21.6703" height="21.6703" rx="6" transform="rotate(-26.0566 13.2707 100.663)" fill="#C0F5FF"/>
<rect x="54.2317" y="77.2856" width="21.6703" height="21.6703" rx="6" transform="rotate(-37.6673 54.2317 77.2856)" fill="#C0F5FF"/>
<rect x="34.1468" y="89.771" width="21.6703" height="21.6703" rx="6" transform="rotate(-31.4979 34.1468 89.771)" fill="#C8E1F5"/>
<rect x="70.3151" y="61.0581" width="21.6703" height="21.6703" rx="6" transform="rotate(-42.3585 70.3151 61.0581)" fill="#C8E1F5"/>
<rect x="-0.302677" y="133.026" width="21.6703" height="21.6703" rx="6" transform="rotate(-23.1166 -0.302677 133.026)" fill="#B1E1F8"/>
<rect x="22.5912" y="122.818" width="21.6703" height="21.6703" rx="6" transform="rotate(-26.0566 22.5912 122.818)" fill="#C8E1F5"/>
<rect x="63.7796" y="100.283" width="21.6703" height="21.6703" rx="6" transform="rotate(-39.8691 63.7796 100.283)" fill="#C8E1F5"/>
<rect x="43.9959" y="112.8" width="21.6703" height="21.6703" rx="6" transform="rotate(-32.8131 43.9959 112.8)" fill="#B1E1F8"/>
<rect x="82.1733" y="85.4438" width="21.6703" height="21.6703" rx="6" transform="rotate(-46.6256 82.1733 85.4438)" fill="#B1E1F8"/>
<rect x="-22.9794" y="140.969" width="21.6703" height="21.6703" rx="6" transform="rotate(-18.6767 -22.9794 140.969)" fill="#BAD8FE"/>
<rect x="102.528" y="25.8223" width="21.6703" height="21.6703" rx="6" transform="rotate(-52.2511 102.528 25.8223)" fill="#C0F5FF"/>
<rect x="87.8744" y="44.4712" width="21.6703" height="21.6703" rx="6" transform="rotate(-48.5956 87.8744 44.4712)" fill="#C8E1F5"/>
<rect x="116.431" y="7.29492" width="21.6703" height="21.6703" rx="6" transform="rotate(-56.691 116.431 7.29492)" fill="#C8E1F5"/>
<rect x="98.5738" y="67.2578" width="21.6703" height="21.6703" rx="6" transform="rotate(-48.5956 98.5738 67.2578)" fill="#B1E1F8"/>
<rect x="129.48" y="29.3145" width="21.6703" height="21.6703" rx="6" transform="rotate(-55.4201 129.48 29.3145)" fill="#B1E1F8"/>
<rect x="143.375" y="8.45264" width="21.6703" height="21.6703" rx="6" transform="rotate(-58.3601 143.375 8.45264)" fill="#C8E1F5"/>
<rect x="114.558" y="48.1479" width="21.6703" height="21.6703" rx="6" transform="rotate(-50.9802 114.558 48.1479)" fill="#BAD8FE"/>
<rect width="430" height="1212" fill="#05445E"/>
<rect x="-18.7684" y="9.28564" width="21.6703" height="21.6703" rx="6" transform="rotate(-37.6673 -18.7684 9.28564)" fill="#C0F5FF"/>
<rect x="-2.6849" y="-6.94189" width="21.6703" height="21.6703" rx="6" transform="rotate(-42.3585 -2.6849 -6.94189)" fill="#C8E1F5"/>
<rect x="-9.2204" y="32.2827" width="21.6703" height="21.6703" rx="6" transform="rotate(-39.8691 -9.2204 32.2827)" fill="#C8E1F5"/>
<rect x="-29.0042" y="44.8003" width="21.6703" height="21.6703" rx="6" transform="rotate(-32.8131 -29.0042 44.8003)" fill="#B1E1F8"/>
<rect x="9.17331" y="17.4438" width="21.6703" height="21.6703" rx="6" transform="rotate(-46.6256 9.17331 17.4438)" fill="#B1E1F8"/>
<rect x="25.5738" y="-0.742188" width="21.6703" height="21.6703" rx="6" transform="rotate(-48.5956 25.5738 -0.742188)" fill="#B1E1F8"/>
<rect x="-26.733" y="74.1733" width="21.6703" height="21.6703" rx="6" transform="rotate(-26.9319 -26.733 74.1733)" fill="#C0F5FF"/>
<rect x="13.866" y="50.1733" width="21.6703" height="21.6703" rx="6" transform="rotate(-38.5425 13.866 50.1733)" fill="#C0F5FF"/>
<rect x="-6.02582" y="62.9639" width="21.6703" height="21.6703" rx="6" transform="rotate(-32.3732 -6.02582 62.9639)" fill="#C8E1F5"/>
<rect x="29.6997" y="33.7017" width="21.6703" height="21.6703" rx="6" transform="rotate(-43.2338 29.6997 33.7017)" fill="#C8E1F5"/>
<rect x="-17.0752" y="96.1841" width="21.6703" height="21.6703" rx="6" transform="rotate(-26.9319 -17.0752 96.1841)" fill="#C8E1F5"/>
<rect x="23.7642" y="73.022" width="21.6703" height="21.6703" rx="6" transform="rotate(-40.7444 23.7642 73.022)" fill="#C8E1F5"/>
<rect x="4.17392" y="85.8398" width="21.6703" height="21.6703" rx="6" transform="rotate(-33.6884 4.17392 85.8398)" fill="#B1E1F8"/>
<rect x="41.929" y="57.9038" width="21.6703" height="21.6703" rx="6" transform="rotate(-47.5009 41.929 57.9038)" fill="#B1E1F8"/>
<rect x="61.3708" y="-2.02148" width="21.6703" height="21.6703" rx="6" transform="rotate(-53.1264 61.3708 -2.02148)" fill="#C0F5FF"/>
<rect x="47.0036" y="16.8491" width="21.6703" height="21.6703" rx="6" transform="rotate(-49.4709 47.0036 16.8491)" fill="#C8E1F5"/>
<rect x="58.0498" y="39.4697" width="21.6703" height="21.6703" rx="6" transform="rotate(-49.4709 58.0498 39.4697)" fill="#B1E1F8"/>
<rect x="88.3723" y="1.05859" width="21.6703" height="21.6703" rx="6" transform="rotate(-56.2954 88.3723 1.05859)" fill="#B1E1F8"/>
<rect x="73.7398" y="20.1177" width="21.6703" height="21.6703" rx="6" transform="rotate(-51.8555 73.7398 20.1177)" fill="#BAD8FE"/>
<rect x="-23.2989" y="216.171" width="21.6703" height="21.6703" rx="6" transform="rotate(-6.54785 -23.2989 216.171)" fill="#C0F5FF"/>
<rect x="23.1173" y="207.815" width="21.6703" height="21.6703" rx="6" transform="rotate(-18.1585 23.1173 207.815)" fill="#C0F5FF"/>
<rect x="0.0159187" y="212.876" width="21.6703" height="21.6703" rx="6" transform="rotate(-11.9892 0.0159187 212.876)" fill="#C8E1F5"/>
<rect x="43.6966" y="197.891" width="21.6703" height="21.6703" rx="6" transform="rotate(-22.8498 43.6966 197.891)" fill="#C8E1F5"/>
<rect x="-21.9125" y="240.168" width="21.6703" height="21.6703" rx="6" transform="rotate(-6.54785 -21.9125 240.168)" fill="#C8E1F5"/>
<rect x="24.4371" y="232.681" width="21.6703" height="21.6703" rx="6" transform="rotate(-20.3603 24.4371 232.681)" fill="#C8E1F5"/>
<rect x="1.60893" y="237.873" width="21.6703" height="21.6703" rx="6" transform="rotate(-13.3044 1.60893 237.873)" fill="#B1E1F8"/>
<rect x="46.7303" y="224.836" width="21.6703" height="21.6703" rx="6" transform="rotate(-27.1169 46.7303 224.836)" fill="#B1E1F8"/>
<rect x="85.8274" y="175.435" width="21.6703" height="21.6703" rx="6" transform="rotate(-32.7424 85.8274 175.435)" fill="#C0F5FF"/>
<rect x="65.787" y="188.12" width="21.6703" height="21.6703" rx="6" transform="rotate(-29.0868 65.787 188.12)" fill="#C8E1F5"/>
<rect x="105.119" y="162.614" width="21.6703" height="21.6703" rx="6" transform="rotate(-37.1823 105.119 162.614)" fill="#C8E1F5"/>
<rect x="123.886" y="147.568" width="21.6703" height="21.6703" rx="6" transform="rotate(-40.1223 123.886 147.568)" fill="#C0F5FF"/>
<rect x="159" y="109.395" width="21.6703" height="21.6703" rx="6" transform="rotate(-49.1623 159 109.395)" fill="#C0F5FF"/>
<rect x="142.138" y="131.122" width="21.6703" height="21.6703" rx="6" transform="rotate(-49.5085 142.138 131.122)" fill="#C8E1F5"/>
<rect x="68.2625" y="213.171" width="21.6703" height="21.6703" rx="6" transform="rotate(-29.0868 68.2625 213.171)" fill="#B1E1F8"/>
<rect x="110.065" y="187.728" width="21.6703" height="21.6703" rx="6" transform="rotate(-35.9114 110.065 187.728)" fill="#B1E1F8"/>
<rect x="130.13" y="172.704" width="21.6703" height="21.6703" rx="6" transform="rotate(-38.8514 130.13 172.704)" fill="#C8E1F5"/>
<rect x="165.305" y="141.606" width="21.6703" height="21.6703" rx="6" transform="rotate(-52.6639 165.305 141.606)" fill="#C8E1F5"/>
<rect x="148.785" y="158.193" width="21.6703" height="21.6703" rx="6" transform="rotate(-45.6079 148.785 158.193)" fill="#B1E1F8"/>
<rect x="180.836" y="122.412" width="21.6703" height="21.6703" rx="6" transform="rotate(-52.9049 180.836 122.412)" fill="#B1E1F8"/>
<rect x="89.7105" y="200.496" width="21.6703" height="21.6703" rx="6" transform="rotate(-31.4715 89.7105 200.496)" fill="#BAD8FE"/>
<rect x="-2.88267" y="163.815" width="21.6703" height="21.6703" rx="6" transform="rotate(-18.1585 -2.88267 163.815)" fill="#C0F5FF"/>
<rect x="17.6967" y="153.891" width="21.6703" height="21.6703" rx="6" transform="rotate(-22.8498 17.6967 153.891)" fill="#C8E1F5"/>
<rect x="-1.56284" y="188.681" width="21.6703" height="21.6703" rx="6" transform="rotate(-20.3603 -1.56284 188.681)" fill="#C8E1F5"/>
<rect x="-24.391" y="193.873" width="21.6703" height="21.6703" rx="6" transform="rotate(-13.3044 -24.391 193.873)" fill="#B1E1F8"/>
<rect x="20.7304" y="180.836" width="21.6703" height="21.6703" rx="6" transform="rotate(-27.1169 20.7304 180.836)" fill="#B1E1F8"/>
<rect x="59.8274" y="131.435" width="21.6703" height="21.6703" rx="6" transform="rotate(-32.7424 59.8274 131.435)" fill="#C0F5FF"/>
<rect x="39.7871" y="144.12" width="21.6703" height="21.6703" rx="6" transform="rotate(-29.0868 39.7871 144.12)" fill="#C8E1F5"/>
<rect x="79.1192" y="118.614" width="21.6703" height="21.6703" rx="6" transform="rotate(-37.1823 79.1192 118.614)" fill="#C8E1F5"/>
<rect x="97.8862" y="103.568" width="21.6703" height="21.6703" rx="6" transform="rotate(-40.1223 97.8862 103.568)" fill="#C0F5FF"/>
<rect x="130.784" y="68.6064" width="21.6703" height="21.6703" rx="6" transform="rotate(-55.6779 130.784 68.6064)" fill="#C0F5FF"/>
<rect x="116.138" y="87.1221" width="21.6703" height="21.6703" rx="6" transform="rotate(-49.5085 116.138 87.1221)" fill="#C8E1F5"/>
<rect x="42.2626" y="169.171" width="21.6703" height="21.6703" rx="6" transform="rotate(-29.0868 42.2626 169.171)" fill="#B1E1F8"/>
<rect x="84.0652" y="143.728" width="21.6703" height="21.6703" rx="6" transform="rotate(-35.9114 84.0652 143.728)" fill="#B1E1F8"/>
<rect x="104.13" y="128.704" width="21.6703" height="21.6703" rx="6" transform="rotate(-38.8514 104.13 128.704)" fill="#C8E1F5"/>
<rect x="139.305" y="97.606" width="21.6703" height="21.6703" rx="6" transform="rotate(-52.6639 139.305 97.606)" fill="#C8E1F5"/>
<rect x="122.785" y="114.194" width="21.6703" height="21.6703" rx="6" transform="rotate(-45.6079 122.785 114.194)" fill="#B1E1F8"/>
<rect x="153.956" y="79.062" width="21.6703" height="21.6703" rx="6" transform="rotate(-59.4204 153.956 79.062)" fill="#B1E1F8"/>
<rect x="63.7105" y="156.497" width="21.6703" height="21.6703" rx="6" transform="rotate(-31.4715 63.7105 156.497)" fill="#BAD8FE"/>
<rect x="191.843" y="69.3105" width="21.6703" height="21.6703" rx="6" transform="rotate(-51.6522 191.843 69.3105)" fill="#C0F5FF"/>
<rect x="174.531" y="87.9116" width="21.6703" height="21.6703" rx="6" transform="rotate(-49.2676 174.531 87.9116)" fill="#C8E1F5"/>
<rect x="206.148" y="49.2061" width="21.6703" height="21.6703" rx="6" transform="rotate(-56.0921 206.148 49.2061)" fill="#C8E1F5"/>
<rect x="219.027" y="28.8906" width="21.6703" height="21.6703" rx="6" transform="rotate(-59.0321 219.027 28.8906)" fill="#C0F5FF"/>
<rect x="230.612" y="8.39111" width="21.6703" height="21.6703" rx="6" transform="rotate(-64.4734 230.612 8.39111)" fill="#C8E1F5"/>
<rect x="195.184" y="102.393" width="21.6703" height="21.6703" rx="6" transform="rotate(-52.8992 195.184 102.393)" fill="#B1E1F8"/>
<rect x="225.255" y="63.4282" width="21.6703" height="21.6703" rx="6" transform="rotate(-56.0921 225.255 63.4282)" fill="#B1E1F8"/>
<rect x="238.905" y="42.4043" width="21.6703" height="21.6703" rx="6" transform="rotate(-59.0321 238.905 42.4043)" fill="#C8E1F5"/>
<rect x="261.192" y="1.08154" width="21.6703" height="21.6703" rx="6" transform="rotate(-72.8446 261.192 1.08154)" fill="#C8E1F5"/>
<rect x="251.408" y="22.3501" width="21.6703" height="21.6703" rx="6" transform="rotate(-65.7886 251.408 22.3501)" fill="#B1E1F8"/>
<rect x="210.555" y="82.4346" width="21.6703" height="21.6703" rx="6" transform="rotate(-51.6522 210.555 82.4346)" fill="#BAD8FE"/>
<rect x="164" y="27.4609" width="21.6703" height="21.6703" rx="6" transform="rotate(-58.4199 164 27.4609)" fill="#C0F5FF"/>
<rect x="149" y="47.9727" width="21.6703" height="21.6703" rx="6" transform="rotate(-56.0353 149 47.9727)" fill="#C8E1F5"/>
<rect x="175.837" y="5.81104" width="21.6703" height="21.6703" rx="6" transform="rotate(-62.8598 175.837 5.81104)" fill="#C8E1F5"/>
<rect x="171.216" y="59.9194" width="21.6703" height="21.6703" rx="6" transform="rotate(-59.6669 171.216 59.9194)" fill="#B1E1F8"/>
<rect x="196.486" y="17.6826" width="21.6703" height="21.6703" rx="6" transform="rotate(-62.8598 196.486 17.6826)" fill="#B1E1F8"/>
<rect x="207.563" y="-4.80322" width="21.6703" height="21.6703" rx="6" transform="rotate(-65.7998 207.563 -4.80322)" fill="#C8E1F5"/>
<rect x="184.128" y="38.2886" width="21.6703" height="21.6703" rx="6" transform="rotate(-58.4199 184.128 38.2886)" fill="#BAD8FE"/>
<rect width="430" height="1212" fill="#05445E" fill-opacity="0.69"/>
<rect x="-8.59022" y="110.696" width="21.6703" height="21.6703" rx="6" transform="rotate(-23.1166 -8.59022 110.696)" fill="#C8E1F5"/>
<rect x="13.2707" y="100.663" width="21.6703" height="21.6703" rx="6" transform="rotate(-26.0566 13.2707 100.663)" fill="#C0F5FF"/>
<rect x="54.2317" y="77.2856" width="21.6703" height="21.6703" rx="6" transform="rotate(-37.6673 54.2317 77.2856)" fill="#C0F5FF"/>
<rect x="34.1468" y="89.771" width="21.6703" height="21.6703" rx="6" transform="rotate(-31.4979 34.1468 89.771)" fill="#C8E1F5"/>
<rect x="70.3151" y="61.0581" width="21.6703" height="21.6703" rx="6" transform="rotate(-42.3585 70.3151 61.0581)" fill="#C8E1F5"/>
<rect x="-0.302677" y="133.026" width="21.6703" height="21.6703" rx="6" transform="rotate(-23.1166 -0.302677 133.026)" fill="#B1E1F8"/>
<rect x="22.5912" y="122.818" width="21.6703" height="21.6703" rx="6" transform="rotate(-26.0566 22.5912 122.818)" fill="#C8E1F5"/>
<rect x="63.7796" y="100.283" width="21.6703" height="21.6703" rx="6" transform="rotate(-39.8691 63.7796 100.283)" fill="#C8E1F5"/>
<rect x="43.9959" y="112.8" width="21.6703" height="21.6703" rx="6" transform="rotate(-32.8131 43.9959 112.8)" fill="#B1E1F8"/>
<rect x="82.1733" y="85.4438" width="21.6703" height="21.6703" rx="6" transform="rotate(-46.6256 82.1733 85.4438)" fill="#B1E1F8"/>
<rect x="-22.9794" y="140.969" width="21.6703" height="21.6703" rx="6" transform="rotate(-18.6767 -22.9794 140.969)" fill="#BAD8FE"/>
<rect x="102.528" y="25.8223" width="21.6703" height="21.6703" rx="6" transform="rotate(-52.2511 102.528 25.8223)" fill="#C0F5FF"/>
<rect x="87.8744" y="44.4712" width="21.6703" height="21.6703" rx="6" transform="rotate(-48.5956 87.8744 44.4712)" fill="#C8E1F5"/>
<rect x="116.431" y="7.29492" width="21.6703" height="21.6703" rx="6" transform="rotate(-56.691 116.431 7.29492)" fill="#C8E1F5"/>
<rect x="98.5738" y="67.2578" width="21.6703" height="21.6703" rx="6" transform="rotate(-48.5956 98.5738 67.2578)" fill="#B1E1F8"/>
<rect x="129.48" y="29.3145" width="21.6703" height="21.6703" rx="6" transform="rotate(-55.4201 129.48 29.3145)" fill="#B1E1F8"/>
<rect x="143.375" y="8.45264" width="21.6703" height="21.6703" rx="6" transform="rotate(-58.3601 143.375 8.45264)" fill="#C8E1F5"/>
<rect x="114.558" y="48.1479" width="21.6703" height="21.6703" rx="6" transform="rotate(-50.9802 114.558 48.1479)" fill="#BAD8FE"/>
</g>
<defs>
<clipPath id="clip0_420_220">
<rect width="430" height="1053" fill="white"/>
</clipPath>
</defs>
</svg>
