<svg width="30" height="24" viewBox="0 0 30 24" fill="none" xmlns="http://www.w3.org/2000/svg">
<path d="M12.1875 0C11.4416 0 10.7262 0.291757 10.1988 0.811089C9.67132 1.33042 9.375 2.03479 9.375 2.76923V3.69231H2.8125C2.06658 3.69231 1.35121 3.98407 0.823762 4.5034C0.296316 5.02273 0 5.72709 0 6.46154L0 21.2308C0 21.9652 0.296316 22.6696 0.823762 23.1889C1.35121 23.7082 2.06658 24 2.8125 24H27.1875C27.9334 24 28.6488 23.7082 29.1762 23.1889C29.7037 22.6696 30 21.9652 30 21.2308V6.46154C30 5.72709 29.7037 5.02273 29.1762 4.5034C28.6488 3.98407 27.9334 3.69231 27.1875 3.69231H20.625V2.76923C20.625 2.03479 20.3287 1.33042 19.8012 0.811089C19.2738 0.291757 18.5584 0 17.8125 0H12.1875ZM12.1875 1.84615H17.8125C18.0611 1.84615 18.2996 1.94341 18.4754 2.11652C18.6512 2.28963 18.75 2.52442 18.75 2.76923V3.69231H11.25V2.76923C11.25 2.52442 11.3488 2.28963 11.5246 2.11652C11.7004 1.94341 11.9389 1.84615 12.1875 1.84615ZM15.7237 14.6105L28.125 11.3557V21.2308C28.125 21.4756 28.0262 21.7104 27.8504 21.8835C27.6746 22.0566 27.4361 22.1538 27.1875 22.1538H2.8125C2.56386 22.1538 2.3254 22.0566 2.14959 21.8835C1.97377 21.7104 1.875 21.4756 1.875 21.2308V11.3538L14.2762 14.6105C14.7505 14.7348 15.2495 14.7348 15.7237 14.6105ZM2.8125 5.53846H27.1875C27.4361 5.53846 27.6746 5.63571 27.8504 5.80882C28.0262 5.98194 28.125 6.21672 28.125 6.46154V9.44492L15.2419 12.8271C15.0834 12.8687 14.9166 12.8687 14.7581 12.8271L1.875 9.44492V6.46154C1.875 6.21672 1.97377 5.98194 2.14959 5.80882C2.3254 5.63571 2.56386 5.53846 2.8125 5.53846Z" fill="#05445E"/>
</svg>
