<svg width="30" height="30" viewBox="0 0 30 30" fill="none" xmlns="http://www.w3.org/2000/svg">
<path fill-rule="evenodd" clip-rule="evenodd" d="M3.00098 26.7376V12.5998H5.00081V26.7376C5.00081 27.026 5.10616 27.3026 5.29368 27.5066C5.4812 27.7105 5.73553 27.8251 6.00072 27.8251H23.9992C24.2644 27.8251 24.5187 27.7105 24.7063 27.5066C24.8938 27.3026 24.9991 27.026 24.9991 26.7376V12.5998H26.999V26.7376C26.999 27.6029 26.6829 28.4327 26.1204 29.0446C25.5578 29.6564 24.7948 30.0002 23.9992 30.0002H6.00072C5.20514 30.0002 4.44214 29.6564 3.87958 29.0446C3.31702 28.4327 3.00098 27.6029 3.00098 26.7376ZM24.9991 2.81213V10.4248L20.9995 6.07469V2.81213C20.9995 2.5237 21.1048 2.24709 21.2923 2.04314C21.4799 1.83919 21.7342 1.72461 21.9994 1.72461H23.9992C24.2644 1.72461 24.5187 1.83919 24.7063 2.04314C24.8938 2.24709 24.9991 2.5237 24.9991 2.81213Z" fill="#05445E"/>
<path fill-rule="evenodd" clip-rule="evenodd" d="M13.5861 0.636823C13.9611 0.229065 14.4697 0 15 0C15.5303 0 16.0389 0.229065 16.4139 0.636823L29.7068 15.0922C29.8945 15.2964 30 15.5733 30 15.8621C30 16.1509 29.8945 16.4279 29.7068 16.6321C29.519 16.8363 29.2644 16.951 28.9988 16.951C28.7333 16.951 28.4786 16.8363 28.2909 16.6321L15 2.17458L1.70912 16.6321C1.52136 16.8363 1.26671 16.951 1.00118 16.951C0.73565 16.951 0.480996 16.8363 0.293239 16.6321C0.105481 16.4279 0 16.1509 0 15.8621C0 15.5733 0.105481 15.2964 0.293239 15.0922L13.5861 0.636823Z" fill="#05445E"/>
</svg>
