<svg width="30" height="30" viewBox="0 0 30 30" fill="none" xmlns="http://www.w3.org/2000/svg">
<path d="M15 28.125C11.519 28.125 8.18064 26.7422 5.71922 24.2808C3.25781 21.8194 1.875 18.481 1.875 15C1.875 11.519 3.25781 8.18064 5.71922 5.71922C8.18064 3.25781 11.519 1.875 15 1.875C18.481 1.875 21.8194 3.25781 24.2808 5.71922C26.7422 8.18064 28.125 11.519 28.125 15C28.125 18.481 26.7422 21.8194 24.2808 24.2808C21.8194 26.7422 18.481 28.125 15 28.125ZM15 30C18.9782 30 22.7936 28.4196 25.6066 25.6066C28.4196 22.7936 30 18.9782 30 15C30 11.0218 28.4196 7.20644 25.6066 4.3934C22.7936 1.58035 18.9782 0 15 0C11.0218 0 7.20644 1.58035 4.3934 4.3934C1.58035 7.20644 0 11.0218 0 15C0 18.9782 1.58035 22.7936 4.3934 25.6066C7.20644 28.4196 11.0218 30 15 30Z" fill="#05445E"/>
<path d="M16.7437 12.3525L12.4499 12.8906L12.2962 13.6031L13.1399 13.7587C13.6912 13.89 13.7999 14.0887 13.6799 14.6381L12.2962 21.1406C11.9324 22.8225 12.493 23.6137 13.8112 23.6137C14.833 23.6137 16.0199 23.1413 16.558 22.4925L16.723 21.7125C16.348 22.0425 15.8005 22.1737 15.4368 22.1737C14.9212 22.1737 14.7337 21.8119 14.8668 21.1744L16.7437 12.3525ZM16.8749 8.4375C16.8749 8.93478 16.6774 9.41169 16.3257 9.76332C15.9741 10.115 15.4972 10.3125 14.9999 10.3125C14.5026 10.3125 14.0257 10.115 13.6741 9.76332C13.3225 9.41169 13.1249 8.93478 13.1249 8.4375C13.1249 7.94022 13.3225 7.46331 13.6741 7.11167C14.0257 6.76004 14.5026 6.5625 14.9999 6.5625C15.4972 6.5625 15.9741 6.76004 16.3257 7.11167C16.6774 7.46331 16.8749 7.94022 16.8749 8.4375Z" fill="#05445E"/>
</svg>
