<svg width="288" height="148" viewBox="0 0 288 148" fill="none" xmlns="http://www.w3.org/2000/svg">
<path d="M64.8557 108.772C42.653 108.772 28.9962 93.1045 28.9962 74.8396C28.9962 56.491 42.5692 40.991 64.8557 40.991C87.226 40.991 100.799 56.491 100.799 74.8396C100.799 93.1045 87.1422 108.772 64.8557 108.772ZM42.5692 74.8396C42.5692 94.7802 51.6178 106.929 64.8557 106.929C78.1773 106.929 87.226 94.7802 87.226 74.8396C87.226 54.8153 78.2611 42.7504 64.8557 42.7504C51.5341 42.7504 42.5692 54.8153 42.5692 74.8396Z" fill="#05445E"/>
<path d="M144.533 108.772C123.671 108.772 110.685 93.1045 110.685 74.9234C110.685 56.5748 123.922 40.991 145.958 40.991C157.017 40.991 166.652 44.845 175.114 53.1396C174.695 56.2396 172.768 58.7531 169.417 58.7531C166.401 58.7531 164.809 56.491 163.385 53.8937C159.698 48.1964 153.331 42.6666 145.622 42.6666C132.301 42.6666 123.336 55.4856 123.336 71.6558C123.336 91.5126 135.485 103.075 150.231 103.075C163.05 103.075 173.439 94.1099 175.868 79.1964H177.293C174.695 98.4666 160.452 108.772 144.533 108.772Z" fill="#05445E"/>
<path d="M217.794 108.772C196.932 108.772 183.946 93.1045 183.946 74.9234C183.946 56.5748 197.183 40.991 219.219 40.991C230.278 40.991 239.913 44.845 248.375 53.1396C247.956 56.2396 246.029 58.7531 242.678 58.7531C239.662 58.7531 238.07 56.491 236.646 53.8937C232.959 48.1964 226.592 42.6666 218.883 42.6666C205.562 42.6666 196.597 55.4856 196.597 71.6558C196.597 91.5126 208.746 103.075 223.492 103.075C236.31 103.075 246.7 94.1099 249.129 79.1964H250.554C247.956 98.4666 233.713 108.772 217.794 108.772Z" fill="#05445E"/>
<rect x="6" y="6" width="276.007" height="135.494" stroke="#05445E" stroke-width="12"/>
</svg>
