<svg width="31" height="30" viewBox="0 0 31 30" fill="none" xmlns="http://www.w3.org/2000/svg">
<path d="M5.55016 28.7001C5.39904 29.588 6.24765 30.282 6.99551 29.886L15.501 25.3744L24.0045 29.886C24.7524 30.282 25.601 29.588 25.4499 28.7021L23.8418 19.2428L30.6655 12.5313C31.3049 11.9034 30.9755 10.7555 30.1192 10.6315L20.6295 9.23958L16.398 0.586243C16.3174 0.410834 16.1902 0.262634 16.0313 0.15886C15.8723 0.0550867 15.6881 0 15.5 0C15.3119 0 15.1277 0.0550867 14.9687 0.15886C14.8098 0.262634 14.6826 0.410834 14.602 0.586243L10.3706 9.24158L0.880875 10.6335C0.026453 10.7575 -0.304853 11.9054 0.332572 12.5333L7.15826 19.2448L5.55016 28.7041V28.7001ZM15.0534 23.1665L7.91193 26.9542L9.25653 19.0408C9.2889 18.8587 9.27699 18.6711 9.22188 18.4948C9.16677 18.3186 9.07017 18.1592 8.94073 18.0309L3.31046 12.4913L11.1611 11.3394C11.3234 11.3133 11.4772 11.2473 11.6097 11.1471C11.7422 11.0469 11.8495 10.9153 11.9225 10.7635L15.4971 3.44803L19.0756 10.7635C19.1486 10.9153 19.2559 11.0469 19.3884 11.1471C19.5209 11.2473 19.6747 11.3133 19.837 11.3394L27.6876 12.4893L22.0574 18.0289C21.9276 18.1574 21.8308 18.3171 21.7757 18.4937C21.7206 18.6704 21.7089 18.8584 21.7416 19.0408L23.0862 26.9542L15.9447 23.1665C15.8067 23.0925 15.6535 23.0539 15.4981 23.0539C15.3426 23.0539 15.1914 23.0925 15.0534 23.1665Z" fill="#05445E"/>
</svg>
