<svg width="30" height="30" viewBox="0 0 30 30" fill="none" xmlns="http://www.w3.org/2000/svg">
<path d="M6.85192 2.49049C6.74123 2.34811 6.60152 2.23091 6.44206 2.14667C6.2826 2.06244 6.10704 2.01309 5.92704 2.00192C5.74705 1.99075 5.56674 2.018 5.39808 2.08187C5.22943 2.14574 5.07629 2.24477 4.94885 2.37237L3.01016 4.31295C2.10457 5.22043 1.77083 6.50477 2.16644 7.63162C3.8084 12.2957 6.47936 16.5303 9.9812 20.0213C13.4722 23.5231 17.7068 26.1941 22.3708 27.8361C23.4976 28.2317 24.782 27.898 25.6895 26.9924L27.6281 25.0537C27.7557 24.9262 27.8548 24.7731 27.9186 24.6045C27.9825 24.4358 28.0098 24.2555 27.9986 24.0755C27.9874 23.8955 27.9381 23.7199 27.8538 23.5605C27.7696 23.401 27.6524 23.2613 27.51 23.1506L23.1845 19.7869C23.0324 19.669 22.8555 19.5871 22.6671 19.5474C22.4787 19.5078 22.2838 19.5115 22.0971 19.5582L17.9909 20.5838C17.4429 20.7208 16.8686 20.7135 16.3242 20.5627C15.7798 20.4119 15.2836 20.1227 14.8842 19.7232L10.2793 15.1164C9.87951 14.7171 9.58994 14.2211 9.4388 13.6767C9.28765 13.1322 9.28009 12.5579 9.41684 12.0096L10.4443 7.90349C10.491 7.71673 10.4947 7.52181 10.4551 7.33343C10.4154 7.14505 10.3335 6.96813 10.2156 6.81601L6.85192 2.49049ZM3.53327 0.958655C3.86138 0.630443 4.25555 0.375788 4.68962 0.2116C5.12369 0.0474121 5.58773 -0.0225524 6.05091 0.00635241C6.51409 0.0352572 6.96583 0.16237 7.37612 0.37925C7.78641 0.59613 8.14586 0.897815 8.43062 1.26427L11.7943 5.58792C12.4111 6.38102 12.6286 7.41412 12.3849 8.3891L11.3593 12.4952C11.3063 12.7079 11.3091 12.9307 11.3676 13.1419C11.4261 13.3532 11.5382 13.5457 11.693 13.7008L16.2997 18.3076C16.4551 18.4628 16.6479 18.5751 16.8595 18.6335C17.0711 18.692 17.2943 18.6947 17.5072 18.6413L21.6115 17.6157C22.0926 17.4954 22.5948 17.4861 23.0801 17.5884C23.5653 17.6907 24.021 17.902 24.4126 18.2064L28.7362 21.57C30.2906 22.7794 30.4331 25.0762 29.0418 26.4655L27.1032 28.4042C25.7157 29.7917 23.642 30.4011 21.709 29.7205C16.7613 27.9796 12.2691 25.1471 8.56561 21.4332C4.8519 17.7301 2.01946 13.2386 0.278374 8.2916C-0.400354 6.3604 0.209001 4.28482 1.59646 2.89736L3.53515 0.958655H3.53327Z" fill="#05445E"/>
</svg>
