<svg width="1532" height="1532" viewBox="0 0 1532 1532" fill="none" xmlns="http://www.w3.org/2000/svg">
<circle cx="766" cy="766" r="766" fill="#05445E"/>
<path d="M410.8 928.8C304.8 928.8 239.6 854 239.6 766.8C239.6 679.2 304.4 605.2 410.8 605.2C517.6 605.2 582.4 679.2 582.4 766.8C582.4 854 517.2 928.8 410.8 928.8ZM304.4 766.8C304.4 862 347.6 920 410.8 920C474.4 920 517.6 862 517.6 766.8C517.6 671.2 474.8 613.6 410.8 613.6C347.2 613.6 304.4 671.2 304.4 766.8ZM790.487 928.8C690.887 928.8 628.887 854 628.887 767.2C628.887 679.6 692.087 605.2 797.287 605.2C850.087 605.2 896.087 623.6 936.487 663.2C934.487 678 925.287 690 909.287 690C894.887 690 887.287 679.2 880.487 666.8C862.887 639.6 832.487 613.2 795.687 613.2C732.087 613.2 689.287 674.4 689.287 751.6C689.287 846.4 747.287 901.6 817.687 901.6C878.887 901.6 928.487 858.8 940.087 787.6H946.887C934.487 879.6 866.487 928.8 790.487 928.8ZM1139.54 928.8C1039.94 928.8 977.939 854 977.939 767.2C977.939 679.6 1041.14 605.2 1146.34 605.2C1199.14 605.2 1245.14 623.6 1285.54 663.2C1283.54 678 1274.34 690 1258.34 690C1243.94 690 1236.34 679.2 1229.54 666.8C1211.94 639.6 1181.54 613.2 1144.74 613.2C1081.14 613.2 1038.34 674.4 1038.34 751.6C1038.34 846.4 1096.34 901.6 1166.74 901.6C1227.94 901.6 1277.54 858.8 1289.14 787.6H1295.94C1283.54 879.6 1215.54 928.8 1139.54 928.8Z" fill="white"/>
<rect x="165" y="468" width="1202" height="596" stroke="white" stroke-width="40"/>
</svg>
