<svg width="980" height="502" viewBox="0 0 980 502" fill="none" xmlns="http://www.w3.org/2000/svg">
<path d="M210.6 389.1C131.1 389.1 82.2 333 82.2 267.6C82.2 201.9 130.8 146.4 210.6 146.4C290.7 146.4 339.3 201.9 339.3 267.6C339.3 333 290.4 389.1 210.6 389.1ZM130.8 267.6C130.8 339 163.2 382.5 210.6 382.5C258.3 382.5 290.7 339 290.7 267.6C290.7 195.9 258.6 152.7 210.6 152.7C162.9 152.7 130.8 195.9 130.8 267.6ZM495.421 389.1C420.721 389.1 374.221 333 374.221 267.9C374.221 202.2 421.621 146.4 500.521 146.4C540.121 146.4 574.621 160.2 604.921 189.9C603.421 201 596.521 210 584.521 210C573.721 210 568.021 201.9 562.921 192.6C549.721 172.2 526.921 152.4 499.321 152.4C451.621 152.4 419.521 198.3 419.521 256.2C419.521 327.3 463.021 368.7 515.821 368.7C561.721 368.7 598.921 336.6 607.621 283.2H612.721C603.421 352.2 552.421 389.1 495.421 389.1ZM757.266 389.1C682.566 389.1 636.066 333 636.066 267.9C636.066 202.2 683.466 146.4 762.366 146.4C801.966 146.4 836.466 160.2 866.766 189.9C865.266 201 858.366 210 846.366 210C835.566 210 829.866 201.9 824.766 192.6C811.566 172.2 788.766 152.4 761.166 152.4C713.466 152.4 681.366 198.3 681.366 256.2C681.366 327.3 724.866 368.7 777.666 368.7C823.566 368.7 860.766 336.6 869.466 283.2H874.566C865.266 352.2 814.266 389.1 757.266 389.1Z" fill="white"/>
<rect x="20" y="20" width="940" height="462" stroke="white" stroke-width="40"/>
</svg>
